<?xml version="1.0" encoding="UTF-8" standalone="no"?>
<!-- Created with Inkscape (http://www.inkscape.org/) -->

<svg
   width="63.5mm"
   height="63.5mm"
   viewBox="0 0 63.5 63.5"
   version="1.1"
   id="svg5"
   xmlns="http://www.w3.org/2000/svg"
   xmlns:svg="http://www.w3.org/2000/svg">
  <defs
     id="defs2" />
  <g
     id="layer1">
    <path
       style="fill:#333;fill-opacity:1;stroke-width:0.264583;stroke-linecap:round;stroke-miterlimit:1.5"
       id="path234"
       d="m 93.864051,133.42658 c -11.54922,7.99561 -1.710426,14.25137 -15.58508,16.44415 -13.874655,2.19278 -6.444538,-6.79219 -19.896581,-10.83655 -13.452043,-4.04436 -12.208599,7.54832 -22.573689,-1.93215 -10.36509,-9.48046 1.292242,-9.2734 -3.932962,-22.31225 -5.225203,-13.03885 -13.513448,-4.83877 -12.56385,-18.853495 0.949598,-14.014728 8.055938,-4.771556 14.992258,-16.986374 6.936321,-12.214817 -4.642395,-13.582162 6.906825,-21.577776 11.54922,-7.995613 8.753347,3.32337 22.628001,1.130589 13.874654,-2.19278 7.724476,-12.09791 21.176519,-8.05355 13.452044,4.04436 2.859308,8.915729 13.224399,18.396194 10.365089,9.480465 14.274659,-1.503685 19.499859,11.535163 5.22521,13.038848 -5.18784,7.794363 -6.13744,21.809089 -0.9496,14.01473 10.07573,10.22285 3.13941,22.43766 -6.93632,12.21482 -9.32845,0.80369 -20.877669,8.7993 z"
       transform="matrix(0.47931444,-0.14232942,0.14232942,0.47931444,-16.097206,-5.8773174)" />
    <path
       id="rect3499"
       style="fill:#555;fill-opacity:1;stroke-width:0.275321;stroke-linecap:round;stroke-miterlimit:1.5"
       d="m 30.244307,6.2720894 0.70992,-0.064319 0.779685,-0.021623 0.85207,0.020772 0.66971,0.06517 v 7.9092866 h -3.011385 z" />
    <circle
       style="fill:#444;fill-opacity:1;stroke-width:0.152012;stroke-linecap:round;stroke-miterlimit:1.5"
       id="path3445"
       cx="31.75"
       cy="31.75"
       r="18.241426" />
  </g>
</svg>
