<?xml version="1.0" encoding="UTF-8" standalone="no"?>

<svg
   width="58.20834mm"
   height="47.625mm"
   viewBox="0 0 58.20834 47.625"
   version="1.1"
   id="svg5"
   inkscape:version="1.2.2 (b0a84865, 2022-12-01)"
   sodipodi:docname="logo.svg"
   inkscape:export-filename="logo.png"
   inkscape:export-xdpi="436.36359"
   inkscape:export-ydpi="436.36359"
   xmlns:inkscape="http://www.inkscape.org/namespaces/inkscape"
   xmlns:sodipodi="http://sodipodi.sourceforge.net/DTD/sodipodi-0.dtd"
   xmlns="http://www.w3.org/2000/svg"
   xmlns:svg="http://www.w3.org/2000/svg">
  <sodipodi:namedview
     id="namedview7"
     pagecolor="#ffffff"
     bordercolor="#111111"
     borderopacity="1"
     inkscape:showpageshadow="0"
     inkscape:pageopacity="0"
     inkscape:pagecheckerboard="true"
     inkscape:deskcolor="#ffffff"
     inkscape:document-units="mm"
     showgrid="false"
     inkscape:zoom="0.70030574"
     inkscape:cx="-24.989085"
     inkscape:cy="-2.8558955"
     inkscape:window-width="1512"
     inkscape:window-height="854"
     inkscape:window-x="0"
     inkscape:window-y="38"
     inkscape:window-maximized="1"
     inkscape:current-layer="layer1"
     showborder="false"
     borderlayer="true">
    <inkscape:grid
       type="xygrid"
       id="grid686"
       originx="-110.59583"
       originy="-206.375" />
  </sodipodi:namedview>
  <defs
     id="defs2">
    <inkscape:path-effect
       effect="fillet_chamfer"
       id="path-effect4755"
       is_visible="true"
       lpeversion="1"
       nodesatellites_param="F,0,0,1,0,0.52916667,0,1 @ F,0,0,1,0,0.52916667,0,1 @ F,0,0,1,0,0.52916667,0,1 @ F,0,0,1,0,0.52916667,0,1 | F,0,0,1,0,0.52916667,0,1 @ F,0,0,1,0,0.52916667,0,1 @ F,0,0,1,0,0.52916667,0,1 @ F,0,0,1,0,0.52916667,0,1 @ F,0,0,1,0,0.52916667,0,1 @ F,0,0,1,0,0.52916667,0,1 @ F,0,0,1,0,0.52916667,0,1 @ F,0,0,1,0,0.52916667,0,1 @ F,0,0,1,0,0.52916667,0,1 @ F,0,0,1,0,0.52916667,0,1 @ F,0,0,1,0,0.52916667,0,1 @ F,0,0,1,0,0.52916667,0,1 @ F,0,0,1,0,0.52916667,0,1 @ F,0,0,1,0,0.52916667,0,1 @ F,0,0,1,0,0.52916667,0,1 @ F,0,0,1,0,0.52916667,0,1 @ F,0,0,1,0,0.52916667,0,1 @ F,0,0,1,0,0.52916667,0,1 @ F,0,0,1,0,0.52916667,0,1 @ F,0,0,1,0,0.52916667,0,1 @ F,0,0,1,0,0.52916667,0,1 @ F,0,0,1,0,0.52916667,0,1 @ F,0,0,1,0,0.52916667,0,1 @ F,0,0,1,0,0.52916667,0,1 | F,0,0,1,0,0.52916667,0,1 @ F,0,0,1,0,0.52916667,0,1 @ F,0,0,1,0,0.52916667,0,1 @ F,0,0,1,0,0.52916667,0,1"
       unit="px"
       method="auto"
       mode="F"
       radius="2"
       chamfer_steps="1"
       flexible="false"
       use_knot_distance="true"
       apply_no_radius="true"
       apply_with_radius="true"
       only_selected="false"
       hide_knots="false" />
    <inkscape:path-effect
       effect="fillet_chamfer"
       id="path-effect2342"
       is_visible="true"
       lpeversion="1"
       nodesatellites_param="F,0,0,1,0,0.52916667,0,1 @ F,0,0,1,0,0.52916667,0,1 @ F,0,0,1,0,0.52916667,0,1 @ F,0,0,1,0,0.52916667,0,1 @ F,0,0,1,0,0.52916667,0,1 @ F,0,0,1,0,0.52916667,0,1 @ F,0,0,1,0,0.52916667,0,1 @ F,0,0,1,0,0.52916667,0,1 @ F,0,0,1,0,0.52916667,0,1 @ F,0,0,1,0,0.52916667,0,1 @ F,0,0,1,0,0.52916667,0,1 @ F,0,0,1,0,0.52916667,0,1 @ F,0,0,1,0,0.52916667,0,1 @ F,0,0,1,0,0.52916667,0,1 @ F,0,0,1,0,0.52916667,0,1 @ F,0,0,1,0,0.52916667,0,1 @ F,0,0,1,0,0.52916667,0,1 @ F,0,0,1,0,0.52916667,0,1 @ F,0,0,1,0,0.52916667,0,1 @ F,0,0,1,0,0.52916667,0,1 @ F,0,0,1,0,0.52916667,0,1 @ F,0,0,1,0,0.52916667,0,1 @ F,0,0,1,0,0.52916667,0,1 @ F,0,0,1,0,0.52916667,0,1 | F,0,0,1,0,0.52916667,0,1 @ F,0,0,1,0,0.52916667,0,1 @ F,0,0,1,0,0.52916667,0,1 @ F,0,0,1,0,0.52916667,0,1"
       unit="px"
       method="auto"
       mode="F"
       radius="2"
       chamfer_steps="1"
       flexible="false"
       use_knot_distance="true"
       apply_no_radius="true"
       apply_with_radius="true"
       only_selected="false"
       hide_knots="false" />
    <inkscape:path-effect
       effect="fillet_chamfer"
       id="path-effect2330"
       is_visible="true"
       lpeversion="1"
       nodesatellites_param="C,0,0,1,0,1.0583333,0,1 @ C,0,0,1,0,1.0583333,0,1 @ C,0,0,1,0,1.0583333,0,1 @ C,0,0,1,0,1.0583333,0,1 @ C,0,0,1,0,1.0583333,0,1 @ C,0,0,1,0,1.0583333,0,1 @ C,0,0,1,0,1.0583333,0,1 @ C,0,0,1,0,1.0583333,0,1 @ C,0,0,1,0,1.0583333,0,1 @ C,0,0,1,0,1.0583333,0,1 @ C,0,0,1,0,1.0583333,0,1 @ C,0,0,1,0,1.0583333,0,1 @ C,0,0,1,0,1.0583333,0,1 @ C,0,0,1,0,1.0583333,0,1 @ C,0,0,1,0,1.0583333,0,1 @ C,0,0,1,0,1.0583333,0,1 @ C,0,0,1,0,1.0583333,0,1 @ C,0,0,1,0,1.0583333,0,1 @ C,0,0,1,0,1.0583333,0,1 @ C,0,0,1,0,1.0583333,0,1 @ C,0,0,1,0,1.0583333,0,1 @ C,0,0,1,0,1.0583333,0,1 | C,0,0,1,0,1.0583333,0,1 @ C,0,0,1,0,1.0583333,0,1 @ C,0,0,1,0,1.0583333,0,1 @ C,0,0,1,0,1.0583333,0,1"
       unit="px"
       method="auto"
       mode="C"
       radius="4"
       chamfer_steps="1"
       flexible="false"
       use_knot_distance="true"
       apply_no_radius="true"
       apply_with_radius="true"
       only_selected="false"
       hide_knots="false" />
    <inkscape:path-effect
       effect="fillet_chamfer"
       id="path-effect2274"
       is_visible="true"
       lpeversion="1"
       nodesatellites_param="C,0,0,1,0,1.0583333,0,1 @ C,0,0,1,0,1.0583333,0,1 @ C,0,0,1,0,1.0583333,0,1 @ C,0,0,1,0,1.0583333,0,1 @ C,0,0,1,0,1.0583333,0,1 @ C,0,0,1,0,1.0583333,0,1 @ C,0,0,1,0,1.0583333,0,1 @ C,0,0,1,0,1.0583333,0,1 @ C,0,0,1,0,1.0583333,0,1 @ C,0,0,1,0,1.0583333,0,1 @ C,0,0,1,0,1.0583333,0,1 @ C,0,0,1,0,1.0583333,0,1 @ C,0,0,1,0,1.0583333,0,1 @ C,0,0,1,0,1.0583333,0,1 @ C,0,0,1,0,1.0583333,0,1 @ C,0,0,1,0,1.0583333,0,1 @ C,0,0,1,0,1.0583333,0,1 @ C,0,0,1,0,1.0583333,0,1 @ C,0,0,1,0,1.0583333,0,1 @ C,0,0,1,0,1.0583333,0,1 @ C,0,0,1,0,1.0583333,0,1 @ C,0,0,1,0,1.0583333,0,1 @ C,0,0,1,0,1.0583333,0,1 @ C,0,0,1,0,1.0583333,0,1 | C,0,0,1,0,1.0583333,0,1 @ C,0,0,1,0,1.0583333,0,1 @ C,0,0,1,0,1.0583333,0,1 @ C,0,0,1,0,1.0583333,0,1"
       unit="px"
       method="auto"
       mode="C"
       radius="4"
       chamfer_steps="1"
       flexible="false"
       use_knot_distance="true"
       apply_no_radius="true"
       apply_with_radius="true"
       only_selected="false"
       hide_knots="false" />
    <inkscape:path-effect
       effect="fillet_chamfer"
       id="path-effect2342-6"
       is_visible="true"
       lpeversion="1"
       nodesatellites_param="F,0,0,1,0,0.52916667,0,1 @ F,0,0,1,0,0.52916667,0,1 @ F,0,0,1,0,0.52916667,0,1 @ F,0,0,1,0,0.52916667,0,1 @ F,0,0,1,0,0.52916667,0,1 @ F,0,0,1,0,0.52916667,0,1 @ F,0,0,1,0,0.52916667,0,1 @ F,0,0,1,0,0.52916667,0,1 @ F,0,0,1,0,0.52916667,0,1 @ F,0,0,1,0,0.52916667,0,1 @ F,0,0,1,0,0.52916667,0,1 @ F,0,0,1,0,0.52916667,0,1 @ F,0,0,1,0,0.52916667,0,1 @ F,0,0,1,0,0.52916667,0,1 @ F,0,0,1,0,0.52916667,0,1 @ F,0,0,1,0,0.52916667,0,1 @ F,0,0,1,0,0.52916667,0,1 @ F,0,0,1,0,0.52916667,0,1 @ F,0,0,1,0,0.52916667,0,1 @ F,0,0,1,0,0.52916667,0,1 @ F,0,0,1,0,0.52916667,0,1 @ F,0,0,1,0,0.52916667,0,1 @ F,0,0,1,0,0.52916667,0,1 @ F,0,0,1,0,0.52916667,0,1 | F,0,0,1,0,0.52916667,0,1 @ F,0,0,1,0,0.52916667,0,1 @ F,0,0,1,0,0.52916667,0,1 @ F,0,0,1,0,0.52916667,0,1"
       unit="px"
       method="auto"
       mode="F"
       radius="2"
       chamfer_steps="1"
       flexible="false"
       use_knot_distance="true"
       apply_no_radius="true"
       apply_with_radius="true"
       only_selected="false"
       hide_knots="false" />
    <inkscape:path-effect
       effect="fillet_chamfer"
       id="path-effect2342-0"
       is_visible="true"
       lpeversion="1"
       nodesatellites_param="F,0,0,1,0,0.52916667,0,1 @ F,0,0,1,0,0.52916667,0,1 @ F,0,0,1,0,0.52916667,0,1 @ F,0,0,1,0,0.52916667,0,1 @ F,0,0,1,0,0.52916667,0,1 @ F,0,0,1,0,0.52916667,0,1 @ F,0,0,1,0,0.52916667,0,1 @ F,0,0,1,0,0.52916667,0,1 @ F,0,0,1,0,0.52916667,0,1 @ F,0,0,1,0,0.52916667,0,1 @ F,0,0,1,0,0.52916667,0,1 @ F,0,0,1,0,0.52916667,0,1 @ F,0,0,1,0,0.52916667,0,1 @ F,0,0,1,0,0.52916667,0,1 @ F,0,0,1,0,0.52916667,0,1 @ F,0,0,1,0,0.52916667,0,1 @ F,0,0,1,0,0.52916667,0,1 @ F,0,0,1,0,0.52916667,0,1 @ F,0,0,1,0,0.52916667,0,1 @ F,0,0,1,0,0.52916667,0,1 @ F,0,0,1,0,0.52916667,0,1 @ F,0,0,1,0,0.52916667,0,1 @ F,0,0,1,0,0.52916667,0,1 @ F,0,0,1,0,0.52916667,0,1 | F,0,0,1,0,0.52916667,0,1 @ F,0,0,1,0,0.52916667,0,1 @ F,0,0,1,0,0.52916667,0,1 @ F,0,0,1,0,0.52916667,0,1"
       unit="px"
       method="auto"
       mode="F"
       radius="2"
       chamfer_steps="1"
       flexible="false"
       use_knot_distance="true"
       apply_no_radius="true"
       apply_with_radius="true"
       only_selected="false"
       hide_knots="false" />
    <inkscape:path-effect
       effect="fillet_chamfer"
       id="path-effect2342-65"
       is_visible="true"
       lpeversion="1"
       nodesatellites_param="F,0,0,1,0,0.52916667,0,1 @ F,0,0,1,0,0.52916667,0,1 @ F,0,0,1,0,0.52916667,0,1 @ F,0,0,1,0,0.52916667,0,1 @ F,0,0,1,0,0.52916667,0,1 @ F,0,0,1,0,0.52916667,0,1 @ F,0,0,1,0,0.52916667,0,1 @ F,0,0,1,0,0.52916667,0,1 @ F,0,0,1,0,0.52916667,0,1 @ F,0,0,1,0,0.52916667,0,1 @ F,0,0,1,0,0.52916667,0,1 @ F,0,0,1,0,0.52916667,0,1 @ F,0,0,1,0,0.52916667,0,1 @ F,0,0,1,0,0.52916667,0,1 @ F,0,0,1,0,0.52916667,0,1 @ F,0,0,1,0,0.52916667,0,1 @ F,0,0,1,0,0.52916667,0,1 @ F,0,0,1,0,0.52916667,0,1 @ F,0,0,1,0,0.52916667,0,1 @ F,0,0,1,0,0.52916667,0,1 @ F,0,0,1,0,0.52916667,0,1 @ F,0,0,1,0,0.52916667,0,1 @ F,0,0,1,0,0.52916667,0,1 @ F,0,0,1,0,0.52916667,0,1 | F,0,0,1,0,0.52916667,0,1 @ F,0,0,1,0,0.52916667,0,1 @ F,0,0,1,0,0.52916667,0,1 @ F,0,0,1,0,0.52916667,0,1"
       unit="px"
       method="auto"
       mode="F"
       radius="2"
       chamfer_steps="1"
       flexible="false"
       use_knot_distance="true"
       apply_no_radius="true"
       apply_with_radius="true"
       only_selected="false"
       hide_knots="false" />
  </defs>
  <g
     inkscape:label="Layer 1"
     inkscape:groupmode="layer"
     id="layer1"
     transform="translate(-110.59583,-206.375)">
    <path
       id="path2337"
       style="fill:#0b0b0b;fill-opacity:1;stroke:none;stroke-width:1;stroke-linecap:round;stroke-linejoin:miter;stroke-dasharray:none;stroke-opacity:1;paint-order:normal"
       d="M 58.208333,32.279167 V 68.2625 a 0.52916667,0.52916667 45 0 0 0.529167,0.529167 h 4.233333 A 0.52916667,0.52916667 135 0 0 63.5,68.2625 V 64.029167 A 0.52916667,0.52916667 135 0 1 64.029167,63.5 l 9.524999,0 a 0.52916667,0.52916667 135 0 0 0.529167,-0.529167 l 0,-4.233333 A 0.52916667,0.52916667 45 0 0 73.554166,58.208333 H 64.029167 A 0.52916667,0.52916667 45 0 1 63.5,57.679166 v -4.233332 a 0.52916667,0.52916667 135 0 1 0.529167,-0.529167 H 78.845833 A 0.52916667,0.52916667 45 0 1 79.375,53.445834 l 0,14.816666 a 0.52916667,0.52916667 45 0 0 0.529167,0.529167 H 105.30416 A 0.52916667,0.52916667 135 0 0 105.83333,68.2625 V 32.279167 A 0.52916667,0.52916667 45 0 0 105.30416,31.75 h -4.23332 a 0.52916667,0.52916667 135 0 0 -0.52917,0.529167 l 0,14.816666 A 0.52916667,0.52916667 135 0 1 100.0125,47.625 H 85.195834 a 0.52916667,0.52916667 45 0 1 -0.529167,-0.529167 l 0,-14.816666 A 0.52916667,0.52916667 45 0 0 84.1375,31.75 H 79.904167 A 0.52916667,0.52916667 135 0 0 79.375,32.279167 l 0,14.816666 A 0.52916667,0.52916667 135 0 1 78.845833,47.625 H 74.6125 a 0.52916667,0.52916667 45 0 1 -0.529167,-0.529167 v -9.524999 a 0.52916667,0.52916667 45 0 0 -0.529167,-0.529167 h -4.233332 a 0.52916667,0.52916667 135 0 0 -0.529167,0.529167 v 9.524999 A 0.52916667,0.52916667 135 0 1 68.2625,47.625 H 64.029167 A 0.52916667,0.52916667 45 0 1 63.5,47.095833 l 0,-14.816666 A 0.52916667,0.52916667 45 0 0 62.970833,31.75 l -4.233333,0 a 0.52916667,0.52916667 135 0 0 -0.529167,0.529167 z m 26.987501,20.6375 H 100.0125 a 0.52916667,0.52916667 45 0 1 0.52917,0.529167 v 9.524999 A 0.52916667,0.52916667 135 0 1 100.0125,63.5 H 85.195834 a 0.52916667,0.52916667 45 0 1 -0.529167,-0.529167 v -9.524999 a 0.52916667,0.52916667 135 0 1 0.529167,-0.529167 z"
       inkscape:path-effect="#path-effect2342"
       inkscape:original-d="M 58.208333,31.75 V 68.791667 H 63.5 V 63.5 H 74.083333 V 58.208333 H 63.5 v -5.291666 h 15.875 v 15.875 h 26.45833 V 31.75 h -5.29166 V 47.625 H 84.666667 V 31.75 H 79.375 V 47.625 H 74.083333 V 37.041667 H 68.791667 V 47.625 H 63.5 V 31.75 Z M 84.666667,52.916667 H 100.54167 V 63.5 H 84.666667 Z" />
    <path
       id="rect4750"
       style="fill:#ffffff;fill-opacity:1;stroke:none;stroke-width:1;stroke-linecap:round;stroke-linejoin:miter;stroke-dasharray:none;stroke-opacity:1;paint-order:normal"
       d="m 110.59583,206.90417 v 46.56666 A 0.52916667,0.52916667 45 0 0 111.125,254 h 57.15 a 0.52916667,0.52916667 135 0 0 0.52917,-0.52917 l 0,-46.56666 A 0.52916667,0.52916667 45 0 0 168.275,206.375 h -57.15 a 0.52916667,0.52916667 135 0 0 -0.52917,0.52917 z m 5.82083,4.7625 h 4.23333 a 0.52916667,0.52916667 45 0 1 0.52917,0.52917 l 0,14.81666 a 0.52916667,0.52916667 45 0 0 0.52917,0.52917 h 4.23333 a 0.52916667,0.52916667 135 0 0 0.52917,-0.52917 l 0,-9.525 A 0.52916667,0.52916667 135 0 1 127,216.95833 h 4.23332 a 0.52916667,0.52916667 45 0 1 0.52917,0.52917 v 9.525 a 0.52916667,0.52916667 45 0 0 0.52917,0.52917 h 4.23333 a 0.52916667,0.52916667 135 0 0 0.52917,-0.52917 l 0,-14.81666 a 0.52916667,0.52916667 135 0 1 0.52917,-0.52917 h 4.23333 a 0.52916667,0.52916667 45 0 1 0.52917,0.52917 v 14.81666 a 0.52916667,0.52916667 45 0 0 0.52917,0.52917 h 14.81667 a 0.52916667,0.52916667 135 0 0 0.52917,-0.52917 l 0,-14.81666 a 0.52916667,0.52916667 135 0 1 0.52917,-0.52917 h 4.23332 a 0.52916667,0.52916667 45 0 1 0.52917,0.52917 v 35.98332 a 0.52916667,0.52916667 135 0 1 -0.52917,0.52917 h -25.4 a 0.52916667,0.52916667 45 0 1 -0.52917,-0.52917 l 0,-14.81666 a 0.52916667,0.52916667 45 0 0 -0.52917,-0.52917 l -14.81666,0 a 0.52916667,0.52916667 135 0 0 -0.52917,0.52917 v 4.23333 a 0.52916667,0.52916667 45 0 0 0.52917,0.52917 h 9.52499 a 0.52916667,0.52916667 45 0 1 0.52917,0.52917 v 4.23333 a 0.52916667,0.52916667 135 0 1 -0.52917,0.52917 l -9.52499,0 a 0.52916667,0.52916667 135 0 0 -0.52917,0.52917 v 4.23332 a 0.52916667,0.52916667 135 0 1 -0.52917,0.52917 h -4.23333 a 0.52916667,0.52916667 45 0 1 -0.52917,-0.52917 l 0,-35.98332 a 0.52916667,0.52916667 135 0 1 0.52917,-0.52917 z m 25.92917,21.69583 v 9.525 a 0.52916667,0.52916667 45 0 0 0.52917,0.52917 h 14.81667 a 0.52916667,0.52916667 135 0 0 0.52917,-0.52917 v -9.525 a 0.52916667,0.52916667 45 0 0 -0.52917,-0.52917 H 142.875 a 0.52916667,0.52916667 135 0 0 -0.52917,0.52917 z"
       inkscape:path-effect="#path-effect4755"
       inkscape:original-d="M 110.59583,206.375 V 254 h 58.20834 v -47.625 z m 5.29166,5.29167 h 5.29167 v 15.875 h 5.29167 v -10.58334 h 5.29166 v 10.58334 h 5.29167 v -15.875 h 5.29167 v 15.875 h 15.87501 v -15.875 h 5.29166 v 37.04166 h -26.45834 v -15.875 h -15.875 v 5.29167 h 10.58333 v 5.29167 h -10.58333 v 5.29166 h -5.29167 z m 26.45834,21.16666 v 10.58334 h 15.87501 v -10.58334 z" />
  </g>
</svg>
